# xmcd CD database file
#
# Track frame offsets:
#	150
#	34850
#	62171
#	86663
#	127773
#	160775
#	197250
#	230003
#
# Disc length: 3545 seconds
#
# Revision: 0
# Processed by: cddbd v1.5.1PL2 Copyright (c) Steve Scherf et al.
# Submitted via: CDex 1.51
#
DISCID=5d0dd708
DTITLE=Kasper Villaume - Hands
DYEAR=2005
DGENRE=Jazz
TTITLE0=Green Chimneys
TTITLE1=Captain Kirkland
TTITLE2=Cloudy and Blue
TTITLE3=Gone
TTITLE4=Hands
TTITLE5=The Sniper
TTITLE6=Meaning Of The Blues
TTITLE7=Groove Street
EXTD=YEAR: 2005
EXTT0=
EXTT1=
EXTT2=
EXTT3=
EXTT4=
EXTT5=
EXTT6=
EXTT7=
PLAYORDER=
